<svg xmlns="http://www.w3.org/2000/svg" xmlns:xlink="http://www.w3.org/1999/xlink" contentStyleType="text/css" height="916px" preserveAspectRatio="none" style="width:937px;height:916px;background:#FFFFFF;" version="1.1" viewBox="0 0 937 916" width="937px" zoomAndPan="magnify"><defs/><g><!--class IBank--><g id="elem_IBank"><rect codeLine="1" fill="#F1F1F1" height="80.5938" id="IBank" rx="2.5" ry="2.5" style="stroke:#181818;stroke-width:0.5;" width="317.6143" x="7" y="269.5"/><ellipse cx="141.9106" cy="285.5" fill="#B4A7E5" rx="11" ry="11" style="stroke:#181818;stroke-width:1;"/><path d="M137.8325,281.2656 L137.8325,279.1094 L145.2231,279.1094 L145.2231,281.2656 L142.7544,281.2656 L142.7544,289.3438 L145.2231,289.3438 L145.2231,291.5 L137.8325,291.5 L137.8325,289.3438 L140.3013,289.3438 L140.3013,281.2656 L137.8325,281.2656 Z " fill="#000000"/><text fill="#000000" font-family="sans-serif" font-size="14" font-style="italic" lengthAdjust="spacing" textLength="39.293" x="162.4106" y="290.3467">IBank</text><line style="stroke:#181818;stroke-width:0.5;" x1="8" x2="323.6143" y1="301.5" y2="301.5"/><line style="stroke:#181818;stroke-width:0.5;" x1="8" x2="323.6143" y1="309.5" y2="309.5"/><ellipse cx="18" cy="323.1484" fill="#84BE84" rx="3" ry="3" style="stroke:#038048;stroke-width:1;"/><text fill="#000000" font-family="sans-serif" font-size="14" lengthAdjust="spacing" textLength="291.6143" x="27" y="326.4951">createApplicationBank(): ApplicationBank</text><ellipse cx="18" cy="339.4453" fill="#84BE84" rx="3" ry="3" style="stroke:#038048;stroke-width:1;"/><text fill="#000000" font-family="sans-serif" font-size="14" lengthAdjust="spacing" textLength="208.209" x="27" y="342.792">deleteApplicationBAnk(): void</text></g><!--class Bank--><g id="elem_Bank"><rect codeLine="5" fill="#F1F1F1" height="162.0781" id="Bank" rx="2.5" ry="2.5" style="stroke:#181818;stroke-width:0.5;" width="317.6143" x="316" y="7"/><ellipse cx="452.9751" cy="23" fill="#ADD1B2" rx="11" ry="11" style="stroke:#181818;stroke-width:1;"/><path d="M455.9438,28.6406 Q455.3657,28.9375 454.7251,29.0781 Q454.0845,29.2344 453.3813,29.2344 Q450.8813,29.2344 449.5532,27.5938 Q448.2407,25.9375 448.2407,22.8125 Q448.2407,19.6875 449.5532,18.0313 Q450.8813,16.375 453.3813,16.375 Q454.0845,16.375 454.7251,16.5313 Q455.3813,16.6875 455.9438,16.9844 L455.9438,19.7031 Q455.3188,19.125 454.7251,18.8594 Q454.1313,18.5781 453.5063,18.5781 Q452.1626,18.5781 451.4751,19.6563 Q450.7876,20.7188 450.7876,22.8125 Q450.7876,24.9063 451.4751,25.9844 Q452.1626,27.0469 453.5063,27.0469 Q454.1313,27.0469 454.7251,26.7813 Q455.3188,26.5 455.9438,25.9219 L455.9438,28.6406 Z " fill="#000000"/><text fill="#000000" font-family="sans-serif" font-size="14" lengthAdjust="spacing" textLength="35.1641" x="473.4751" y="27.8467">Bank</text><line style="stroke:#181818;stroke-width:0.5;" x1="317" x2="632.6143" y1="39" y2="39"/><rect fill="none" height="6" style="stroke:#C82930;stroke-width:1;" width="6" x="324" y="49.6484"/><text fill="#000000" font-family="sans-serif" font-size="14" lengthAdjust="spacing" textLength="62.1318" x="336" y="55.9951">id: string</text><rect fill="none" height="6" style="stroke:#C82930;stroke-width:1;" width="6" x="324" y="65.9453"/><text fill="#000000" font-family="sans-serif" font-size="14" lengthAdjust="spacing" textLength="99.3945" x="336" y="72.292">server: Server</text><ellipse cx="327" cy="85.2422" fill="none" rx="3" ry="3" style="stroke:#038048;stroke-width:1;"/><text fill="#000000" font-family="sans-serif" font-size="14" lengthAdjust="spacing" textLength="89.0586" x="336" y="88.5889">name: string</text><ellipse cx="327" cy="101.5391" fill="none" rx="3" ry="3" style="stroke:#038048;stroke-width:1;"/><text fill="#000000" font-family="sans-serif" font-size="14" lengthAdjust="spacing" textLength="104.9043" x="336" y="104.8857">location: string</text><ellipse cx="327" cy="117.8359" fill="none" rx="3" ry="3" style="stroke:#038048;stroke-width:1;"/><text fill="#000000" font-family="sans-serif" font-size="14" lengthAdjust="spacing" textLength="234.9443" x="336" y="121.1826">applicationBank: ApplicationBank</text><line style="stroke:#181818;stroke-width:0.5;" x1="317" x2="632.6143" y1="128.4844" y2="128.4844"/><ellipse cx="327" cy="142.1328" fill="#84BE84" rx="3" ry="3" style="stroke:#038048;stroke-width:1;"/><text fill="#000000" font-family="sans-serif" font-size="14" lengthAdjust="spacing" textLength="291.6143" x="336" y="145.4795">createApplicationBank(): ApplicationBank</text><ellipse cx="327" cy="158.4297" fill="#84BE84" rx="3" ry="3" style="stroke:#038048;stroke-width:1;"/><text fill="#000000" font-family="sans-serif" font-size="14" lengthAdjust="spacing" textLength="208.209" x="336" y="161.7764">deleteApplicationBAnk(): void</text></g><!--class Server--><g id="elem_Server"><rect codeLine="14" fill="#F1F1F1" height="96.8906" id="Server" rx="2.5" ry="2.5" style="stroke:#181818;stroke-width:0.5;" width="246.9443" x="360.5" y="261.5"/><ellipse cx="456.7671" cy="277.5" fill="#ADD1B2" rx="11" ry="11" style="stroke:#181818;stroke-width:1;"/><path d="M459.7358,283.1406 Q459.1577,283.4375 458.5171,283.5781 Q457.8765,283.7344 457.1733,283.7344 Q454.6733,283.7344 453.3452,282.0938 Q452.0327,280.4375 452.0327,277.3125 Q452.0327,274.1875 453.3452,272.5313 Q454.6733,270.875 457.1733,270.875 Q457.8765,270.875 458.5171,271.0313 Q459.1733,271.1875 459.7358,271.4844 L459.7358,274.2031 Q459.1108,273.625 458.5171,273.3594 Q457.9233,273.0781 457.2983,273.0781 Q455.9546,273.0781 455.2671,274.1563 Q454.5796,275.2188 454.5796,277.3125 Q454.5796,279.4063 455.2671,280.4844 Q455.9546,281.5469 457.2983,281.5469 Q457.9233,281.5469 458.5171,281.2813 Q459.1108,281 459.7358,280.4219 L459.7358,283.1406 Z " fill="#000000"/><text fill="#000000" font-family="sans-serif" font-size="14" lengthAdjust="spacing" textLength="45.9102" x="477.2671" y="282.3467">Server</text><line style="stroke:#181818;stroke-width:0.5;" x1="361.5" x2="606.4443" y1="293.5" y2="293.5"/><rect fill="none" height="6" style="stroke:#C82930;stroke-width:1;" width="6" x="368.5" y="304.1484"/><text fill="#000000" font-family="sans-serif" font-size="14" lengthAdjust="spacing" textLength="62.1318" x="380.5" y="310.4951">id: string</text><ellipse cx="371.5" cy="323.4453" fill="none" rx="3" ry="3" style="stroke:#038048;stroke-width:1;"/><text fill="#000000" font-family="sans-serif" font-size="14" lengthAdjust="spacing" textLength="89.0586" x="380.5" y="326.792">name: string</text><line style="stroke:#181818;stroke-width:0.5;" x1="361.5" x2="606.4443" y1="334.0938" y2="334.0938"/><polygon fill="#FFFF44" points="371.5,342.7422,375.5,346.7422,371.5,350.7422,367.5,346.7422" style="stroke:#B38D22;stroke-width:1;"/><text fill="#000000" font-family="sans-serif" font-size="14" lengthAdjust="spacing" textLength="220.9443" x="380.5" y="351.0889">checkCreditHistoryUser():string</text></g><!--class User--><g id="elem_User"><rect codeLine="20" fill="#F1F1F1" height="162.0781" id="User" rx="2.5" ry="2.5" style="stroke:#181818;stroke-width:0.5;" width="261.6211" x="669" y="7"/><ellipse cx="779.6055" cy="23" fill="#ADD1B2" rx="11" ry="11" style="stroke:#181818;stroke-width:1;"/><path d="M782.5742,28.6406 Q781.9961,28.9375 781.3555,29.0781 Q780.7148,29.2344 780.0117,29.2344 Q777.5117,29.2344 776.1836,27.5938 Q774.8711,25.9375 774.8711,22.8125 Q774.8711,19.6875 776.1836,18.0313 Q777.5117,16.375 780.0117,16.375 Q780.7148,16.375 781.3555,16.5313 Q782.0117,16.6875 782.5742,16.9844 L782.5742,19.7031 Q781.9492,19.125 781.3555,18.8594 Q780.7617,18.5781 780.1367,18.5781 Q778.793,18.5781 778.1055,19.6563 Q777.418,20.7188 777.418,22.8125 Q777.418,24.9063 778.1055,25.9844 Q778.793,27.0469 780.1367,27.0469 Q780.7617,27.0469 781.3555,26.7813 Q781.9492,26.5 782.5742,25.9219 L782.5742,28.6406 Z " fill="#000000"/><text fill="#000000" font-family="sans-serif" font-size="14" lengthAdjust="spacing" textLength="31.9102" x="800.1055" y="27.8467">User</text><line style="stroke:#181818;stroke-width:0.5;" x1="670" x2="929.6211" y1="39" y2="39"/><rect fill="none" height="6" style="stroke:#C82930;stroke-width:1;" width="6" x="677" y="49.6484"/><text fill="#000000" font-family="sans-serif" font-size="14" lengthAdjust="spacing" textLength="62.1318" x="689" y="55.9951">id: string</text><rect fill="none" height="6" style="stroke:#C82930;stroke-width:1;" width="6" x="677" y="65.9453"/><text fill="#000000" font-family="sans-serif" font-size="14" lengthAdjust="spacing" textLength="199.7803" x="689" y="72.292">application: ApplicationBank</text><ellipse cx="680" cy="85.2422" fill="none" rx="3" ry="3" style="stroke:#038048;stroke-width:1;"/><text fill="#000000" font-family="sans-serif" font-size="14" lengthAdjust="spacing" textLength="118.0156" x="689" y="88.5889">firstName: string</text><ellipse cx="680" cy="101.5391" fill="none" rx="3" ry="3" style="stroke:#038048;stroke-width:1;"/><text fill="#000000" font-family="sans-serif" font-size="14" lengthAdjust="spacing" textLength="115.9102" x="689" y="104.8857">lastName: string</text><ellipse cx="680" cy="117.8359" fill="none" rx="3" ry="3" style="stroke:#038048;stroke-width:1;"/><text fill="#000000" font-family="sans-serif" font-size="14" lengthAdjust="spacing" textLength="120.4561" x="689" y="121.1826">workPlace: string</text><line style="stroke:#181818;stroke-width:0.5;" x1="670" x2="929.6211" y1="128.4844" y2="128.4844"/><ellipse cx="680" cy="142.1328" fill="#84BE84" rx="3" ry="3" style="stroke:#038048;stroke-width:1;"/><text fill="#000000" font-family="sans-serif" font-size="14" lengthAdjust="spacing" textLength="235.6211" x="689" y="145.4795">registratinApplicationBank(): void</text><ellipse cx="680" cy="158.4297" fill="#84BE84" rx="3" ry="3" style="stroke:#038048;stroke-width:1;"/><text fill="#000000" font-family="sans-serif" font-size="14" lengthAdjust="spacing" textLength="197.21" x="689" y="161.7764">loginApplicationBank(): void</text></g><!--class AccountClient--><g id="elem_AccountClient"><rect codeLine="29" fill="#F1F1F1" height="129.4844" id="AccountClient" rx="2.5" ry="2.5" style="stroke:#181818;stroke-width:0.5;" width="208.957" x="686.5" y="451"/><ellipse cx="738.0771" cy="467" fill="#ADD1B2" rx="11" ry="11" style="stroke:#181818;stroke-width:1;"/><path d="M741.0459,472.6406 Q740.4678,472.9375 739.8271,473.0781 Q739.1865,473.2344 738.4834,473.2344 Q735.9834,473.2344 734.6553,471.5938 Q733.3428,469.9375 733.3428,466.8125 Q733.3428,463.6875 734.6553,462.0313 Q735.9834,460.375 738.4834,460.375 Q739.1865,460.375 739.8271,460.5313 Q740.4834,460.6875 741.0459,460.9844 L741.0459,463.7031 Q740.4209,463.125 739.8271,462.8594 Q739.2334,462.5781 738.6084,462.5781 Q737.2646,462.5781 736.5771,463.6563 Q735.8896,464.7188 735.8896,466.8125 Q735.8896,468.9063 736.5771,469.9844 Q737.2646,471.0469 738.6084,471.0469 Q739.2334,471.0469 739.8271,470.7813 Q740.4209,470.5 741.0459,469.9219 L741.0459,472.6406 Z " fill="#000000"/><text fill="#000000" font-family="sans-serif" font-size="14" lengthAdjust="spacing" textLength="97.3027" x="758.5771" y="471.8467">AccountClient</text><line style="stroke:#181818;stroke-width:0.5;" x1="687.5" x2="894.457" y1="483" y2="483"/><rect fill="none" height="6" style="stroke:#C82930;stroke-width:1;" width="6" x="694.5" y="493.6484"/><text fill="#000000" font-family="sans-serif" font-size="14" lengthAdjust="spacing" textLength="62.1318" x="706.5" y="499.9951">id: string</text><rect fill="none" height="6" style="stroke:#C82930;stroke-width:1;" width="6" x="694.5" y="509.9453"/><text fill="#000000" font-family="sans-serif" font-size="14" lengthAdjust="spacing" textLength="89.0586" x="706.5" y="516.292">name: string</text><rect fill="none" height="6" style="stroke:#C82930;stroke-width:1;" width="6" x="694.5" y="526.2422"/><text fill="#000000" font-family="sans-serif" font-size="14" lengthAdjust="spacing" textLength="112" x="706.5" y="532.5889">balance: double</text><rect fill="none" height="6" style="stroke:#C82930;stroke-width:1;" width="6" x="694.5" y="542.5391"/><text fill="#000000" font-family="sans-serif" font-size="14" lengthAdjust="spacing" textLength="119.1367" x="706.5" y="548.8857">card: VirtualCard</text><line style="stroke:#181818;stroke-width:0.5;" x1="687.5" x2="894.457" y1="556.1875" y2="556.1875"/><ellipse cx="697.5" cy="569.8359" fill="#84BE84" rx="3" ry="3" style="stroke:#038048;stroke-width:1;"/><text fill="#000000" font-family="sans-serif" font-size="14" lengthAdjust="spacing" textLength="182.957" x="706.5" y="573.1826">hasTransaction(): boolean</text></g><!--class VirtualCard--><g id="elem_VirtualCard"><rect codeLine="37" fill="#F1F1F1" height="129.4844" id="VirtualCard" rx="2.5" ry="2.5" style="stroke:#181818;stroke-width:0.5;" width="180.0342" x="701" y="640"/><ellipse cx="747.2417" cy="656" fill="#ADD1B2" rx="11" ry="11" style="stroke:#181818;stroke-width:1;"/><path d="M750.2104,661.6406 Q749.6323,661.9375 748.9917,662.0781 Q748.3511,662.2344 747.6479,662.2344 Q745.1479,662.2344 743.8198,660.5938 Q742.5073,658.9375 742.5073,655.8125 Q742.5073,652.6875 743.8198,651.0313 Q745.1479,649.375 747.6479,649.375 Q748.3511,649.375 748.9917,649.5313 Q749.6479,649.6875 750.2104,649.9844 L750.2104,652.7031 Q749.5854,652.125 748.9917,651.8594 Q748.3979,651.5781 747.7729,651.5781 Q746.4292,651.5781 745.7417,652.6563 Q745.0542,653.7188 745.0542,655.8125 Q745.0542,657.9063 745.7417,658.9844 Q746.4292,660.0469 747.7729,660.0469 Q748.3979,660.0469 748.9917,659.7813 Q749.5854,659.5 750.2104,658.9219 L750.2104,661.6406 Z " fill="#000000"/><text fill="#000000" font-family="sans-serif" font-size="14" lengthAdjust="spacing" textLength="79.0508" x="767.7417" y="660.8467">VirtualCard</text><line style="stroke:#181818;stroke-width:0.5;" x1="702" x2="880.0342" y1="672" y2="672"/><rect fill="none" height="6" style="stroke:#C82930;stroke-width:1;" width="6" x="709" y="682.6484"/><text fill="#000000" font-family="sans-serif" font-size="14" lengthAdjust="spacing" textLength="62.1318" x="721" y="688.9951">id: string</text><rect fill="none" height="6" style="stroke:#C82930;stroke-width:1;" width="6" x="709" y="698.9453"/><text fill="#000000" font-family="sans-serif" font-size="14" lengthAdjust="spacing" textLength="80.6299" x="721" y="705.292">type: string</text><rect fill="none" height="6" style="stroke:#C82930;stroke-width:1;" width="6" x="709" y="715.2422"/><text fill="#000000" font-family="sans-serif" font-size="14" lengthAdjust="spacing" textLength="72.3994" x="721" y="721.5889">PIN: string</text><rect fill="none" height="6" style="stroke:#C82930;stroke-width:1;" width="6" x="709" y="731.5391"/><text fill="#000000" font-family="sans-serif" font-size="14" lengthAdjust="spacing" textLength="112" x="721" y="737.8857">balance: double</text><line style="stroke:#181818;stroke-width:0.5;" x1="702" x2="880.0342" y1="745.1875" y2="745.1875"/><ellipse cx="712" cy="758.8359" fill="#84BE84" rx="3" ry="3" style="stroke:#038048;stroke-width:1;"/><text fill="#000000" font-family="sans-serif" font-size="14" lengthAdjust="spacing" textLength="154.0342" x="721" y="762.1826">getBalance(): balance</text></g><!--class Card--><g id="elem_Card"><rect codeLine="44" fill="#F1F1F1" height="80.5938" id="Card" rx="2.5" ry="2.5" style="stroke:#181818;stroke-width:0.5;" width="242.2549" x="670" y="829"/><ellipse cx="770.3789" cy="845" fill="#A9DCDF" rx="11" ry="11" style="stroke:#181818;stroke-width:1;"/><path d="M770.4883,840.3438 L769.332,845.4219 L771.6602,845.4219 L770.4883,840.3438 Z M769.0039,838.1094 L771.9883,838.1094 L775.3477,850.5 L772.8945,850.5 L772.1289,847.4375 L768.8477,847.4375 L768.0977,850.5 L765.6602,850.5 L769.0039,838.1094 Z " fill="#000000"/><text fill="#000000" font-family="sans-serif" font-size="14" font-style="italic" lengthAdjust="spacing" textLength="32.9971" x="790.8789" y="849.8467">Card</text><line style="stroke:#181818;stroke-width:0.5;" x1="671" x2="911.2549" y1="861" y2="861"/><rect fill="none" height="6" style="stroke:#C82930;stroke-width:1;" width="6" x="678" y="871.6484"/><text fill="#000000" font-family="sans-serif" font-size="14" lengthAdjust="spacing" textLength="112" x="690" y="877.9951">balance: double</text><line style="stroke:#181818;stroke-width:0.5;" x1="671" x2="911.2549" y1="885.2969" y2="885.2969"/><ellipse cx="681" cy="898.9453" fill="#84BE84" rx="3" ry="3" style="stroke:#038048;stroke-width:1;"/><text fill="#000000" font-family="sans-serif" font-size="14" lengthAdjust="spacing" textLength="216.2549" x="690" y="902.292">abstract getBalance(): balance</text></g><!--class ApplicationBank--><g id="elem_ApplicationBank"><rect codeLine="48" fill="#F1F1F1" height="162.0781" id="ApplicationBank" rx="2.5" ry="2.5" style="stroke:#181818;stroke-width:0.5;" width="260.8145" x="660.5" y="229"/><ellipse cx="729.9634" cy="245" fill="#ADD1B2" rx="11" ry="11" style="stroke:#181818;stroke-width:1;"/><path d="M732.9321,250.6406 Q732.354,250.9375 731.7134,251.0781 Q731.0728,251.2344 730.3696,251.2344 Q727.8696,251.2344 726.5415,249.5938 Q725.229,247.9375 725.229,244.8125 Q725.229,241.6875 726.5415,240.0313 Q727.8696,238.375 730.3696,238.375 Q731.0728,238.375 731.7134,238.5313 Q732.3696,238.6875 732.9321,238.9844 L732.9321,241.7031 Q732.3071,241.125 731.7134,240.8594 Q731.1196,240.5781 730.4946,240.5781 Q729.1509,240.5781 728.4634,241.6563 Q727.7759,242.7188 727.7759,244.8125 Q727.7759,246.9063 728.4634,247.9844 Q729.1509,249.0469 730.4946,249.0469 Q731.1196,249.0469 731.7134,248.7813 Q732.3071,248.5 732.9321,247.9219 L732.9321,250.6406 Z " fill="#000000"/><text fill="#000000" font-family="sans-serif" font-size="14" lengthAdjust="spacing" textLength="113.3877" x="750.4634" y="249.8467">ApplicationBank</text><line style="stroke:#181818;stroke-width:0.5;" x1="661.5" x2="920.3145" y1="261" y2="261"/><rect fill="none" height="6" style="stroke:#C82930;stroke-width:1;" width="6" x="668.5" y="271.6484"/><text fill="#000000" font-family="sans-serif" font-size="14" lengthAdjust="spacing" textLength="62.1318" x="680.5" y="277.9951">id: string</text><rect fill="none" height="6" style="stroke:#C82930;stroke-width:1;" width="6" x="668.5" y="287.9453"/><text fill="#000000" font-family="sans-serif" font-size="14" lengthAdjust="spacing" textLength="162.2441" x="680.5" y="294.292">account: AccountClient</text><ellipse cx="671.5" cy="307.2422" fill="none" rx="3" ry="3" style="stroke:#038048;stroke-width:1;"/><text fill="#000000" font-family="sans-serif" font-size="14" lengthAdjust="spacing" textLength="89.0586" x="680.5" y="310.5889">name: string</text><line style="stroke:#181818;stroke-width:0.5;" x1="661.5" x2="920.3145" y1="317.8906" y2="317.8906"/><ellipse cx="671.5" cy="331.5391" fill="#84BE84" rx="3" ry="3" style="stroke:#038048;stroke-width:1;"/><text fill="#000000" font-family="sans-serif" font-size="14" lengthAdjust="spacing" textLength="234.8145" x="680.5" y="334.8857">activateVirtualCard(): VirtualCard</text><ellipse cx="671.5" cy="347.8359" fill="#84BE84" rx="3" ry="3" style="stroke:#038048;stroke-width:1;"/><text fill="#000000" font-family="sans-serif" font-size="14" lengthAdjust="spacing" textLength="182.2393" x="680.5" y="351.1826">removeVirtualCard(): void</text><ellipse cx="671.5" cy="364.1328" fill="#84BE84" rx="3" ry="3" style="stroke:#038048;stroke-width:1;"/><text fill="#000000" font-family="sans-serif" font-size="14" lengthAdjust="spacing" textLength="208.3047" x="680.5" y="367.4795">openAccountClient(): boolean</text><ellipse cx="671.5" cy="380.4297" fill="#84BE84" rx="3" ry="3" style="stroke:#038048;stroke-width:1;"/><text fill="#000000" font-family="sans-serif" font-size="14" lengthAdjust="spacing" textLength="183.0801" x="680.5" y="383.7764">closeAccountClient(): void</text></g><!--link VirtualCard to Card--><g id="link_VirtualCard_Card"><path codeLine="58" d="M791,769.45 C791,789.43 791,792.89 791,810.7 " fill="none" id="VirtualCard-to-Card" style="stroke:#181818;stroke-width:1;"/><polygon fill="none" points="791,828.7,797,810.7,785,810.7,791,828.7" style="stroke:#181818;stroke-width:1;"/></g><!--link Bank to Server--><g id="link_Bank_Server"><path codeLine="59" d="M478.27,169.05 C479.54,200.01 480.95,234.39 482.05,261.34 " fill="none" id="Bank-Server" style="stroke:#181818;stroke-width:1;"/><text fill="#000000" font-family="sans-serif" font-size="13" lengthAdjust="spacing" textLength="103.3589" x="370.8581" y="189.2826">&#1048;&#1084;&#1077;&#1077;&#1090; &#1076;&#1086;&#1089;&#1090;&#1091;&#1087;1</text><text fill="#000000" font-family="sans-serif" font-size="13" lengthAdjust="spacing" textLength="24.8066" x="456.1489" y="250.5264">0..1</text></g><!--link User to ApplicationBank--><g id="link_User_ApplicationBank"><path codeLine="60" d="M796.73,169.05 C795.93,188.46 795.08,209.22 794.29,228.64 " fill="none" id="User-ApplicationBank" style="stroke:#181818;stroke-width:1;"/><text fill="#000000" font-family="sans-serif" font-size="13" lengthAdjust="spacing" textLength="127.8545" x="663.6315" y="189.2826">&#1047;&#1072;&#1088;&#1077;&#1075;&#1080;&#1089;&#1090;&#1088;&#1080;&#1088;&#1086;&#1074;&#1072;&#1085;1</text><text fill="#000000" font-family="sans-serif" font-size="13" lengthAdjust="spacing" textLength="24.8066" x="769.5841" y="218.0728">0..1</text></g><!--link AccountClient to VirtualCard--><g id="link_AccountClient_VirtualCard"><path codeLine="61" d="M791,580.07 C791,599.34 791,620.51 791,639.79 " fill="none" id="AccountClient-VirtualCard" style="stroke:#181818;stroke-width:1;"/><text fill="#000000" font-family="sans-serif" font-size="13" lengthAdjust="spacing" textLength="102.7368" x="683.1482" y="600.4497">&#1055;&#1088;&#1080;&#1074;&#1103;&#1079;&#1099;&#1074;&#1072;&#1077;&#1090; 1</text><text fill="#000000" font-family="sans-serif" font-size="13" lengthAdjust="spacing" textLength="23.0356" x="766.7423" y="628.9397">0..*</text></g><!--reverse link ApplicationBank to AccountClient--><g id="link_ApplicationBank_AccountClient"><path codeLine="62" d="M791,403.14 C791,422.93 791,431.88 791,450.78 " fill="none" id="ApplicationBank-backto-AccountClient" style="stroke:#181818;stroke-width:1;"/><polygon fill="none" points="791,391.14,787,397.14,791,403.14,795,397.14,791,391.14" style="stroke:#181818;stroke-width:1;"/><text fill="#000000" font-family="sans-serif" font-size="13" lengthAdjust="spacing" textLength="87.7754" x="700.1686" y="411.1038">&#1054;&#1090;&#1082;&#1088;&#1099;&#1074;&#1072;&#1077;&#1090; 1</text><text fill="#000000" font-family="sans-serif" font-size="13" lengthAdjust="spacing" textLength="23.0356" x="766.7465" y="439.9286">0..*</text></g><!--reverse link Bank to ApplicationBank--><g id="link_Bank_ApplicationBank"><path codeLine="63" d="M599.8288,175.9058 C627.7988,195.3758 647.87,209.35 675.84,228.83 " fill="none" id="Bank-backto-ApplicationBank" style="stroke:#181818;stroke-width:1;"/><polygon fill="#181818" points="589.98,169.05,592.6191,175.7608,599.8288,175.9058,597.1896,169.195,589.98,169.05" style="stroke:#181818;stroke-width:1;"/><text fill="#000000" font-family="sans-serif" font-size="13" lengthAdjust="spacing" textLength="83.4336" x="513.7917" y="189.2826">&#1047;&#1072;&#1087;&#1091;&#1089;&#1082;&#1072;&#1077;&#1090; 1</text><text fill="#000000" font-family="sans-serif" font-size="13" lengthAdjust="spacing" textLength="24.8066" x="640.559" y="218.0022">0..1</text></g><!--link Bank to IBank--><g id="link_Bank_IBank"><path codeLine="64" d="M362.57,169.05 C314.6,203.2 275.4341,231.0914 236.2541,258.9814 " fill="none" id="Bank-to-IBank" style="stroke:#181818;stroke-width:1;stroke-dasharray:7.0,7.0;"/><polygon fill="none" points="221.59,269.42,239.7336,263.8695,232.7746,254.0934,221.59,269.42" style="stroke:#181818;stroke-width:1;"/></g><!--SRC=[ZLIxRjim5Dtr5OIwj15aDAk708wNU0a2zB7JDECGPaY3ebq4JG376JjqRAVs5u8qGOkWJNxXyezoASgsACL59edtSSwvvr8QAClDCMMS3FQfcf3FISOCfvRtfbCf6BL2Avzu_QPB6g4a6t79uyfUg9nhCKek4YPfKP0Ab-HYr2M5DKADyL1mC-UcIzwLpuHaYfxoJJwJEa3MGZJcRmiYBzTENYW-o6l9RwXznKuuc_GD7mbx80ghpTa7713HgegBfCBpuROPjScUateiJ64F6_xGLkYJDfCZYRkinGmVenw3QEePLyfHlTVZxUcL4pt6z4pPlXHSsVO8iI7va4ggl9AHdWqbnmYZ1ki_2cDdLFRnWCGdj7Xlg2eeyxIUSgYrv5Hj3Airj4djsRHEUZGu_9-4RCpjVWYMLE4LgUZGMyGi2PHhhZR2kd8RLELLxAK7YvNZoeETtTXNp3Ik5dAYENEyrJKdF6Vaf5_qgPutQy9-IQQdN4KyTQinpwGkUAkWMdzINq6Ud- -Lb7wk5Bx3NxY3ExSaS0iFxj8jtHKyxgPvdhxjT7RJwklsjpw5Rt3j5bZ-2_wKbGjyBk01Rk0Q_crwclS_qfN2Jzy7D-uh_7PVobvFlshVIUk-DA1I-E6MSEyMKIFHgzPu5Q43HSEZktANSB_ksDacjLnsftE-5_wcJm00]--></g></svg>